<svg xmlns="http://www.w3.org/2000/svg" width="1072" height="712" viewBox="0 0 1072 712" fill="none"><rect width="1072" height="712" fill="white"></rect><g style="mix-blend-mode:multiply" filter="url(#filter0_i)"><path d="M177.651 346.553C177.651 348.21 176.308 349.553 174.651 349.553H98.9219C97.265 349.553 95.9219 348.21 95.9219 346.553V127.032C95.9219 125.375 97.2623 124.032 98.9192 124.032C112.061 124.032 161.957 124.032 174.683 124.032C176.34 124.032 177.651 125.375 177.651 127.032V346.553Z" fill="#2D5C62"></path></g><path d="M221.889 313.732C221.889 315.942 220.098 317.732 217.889 317.732H144.16C141.951 317.732 140.16 315.942 140.16 313.732V96.2119C140.16 94.0028 141.91 92.2119 144.119 92.2119C158.21 92.2119 204.124 92.2119 217.928 92.2119C220.137 92.2119 221.889 94.0028 221.889 96.2119V313.732Z" fill="#60DCE4"></path><path d="M1018.96 561.792H69.3191C69.3191 561.792 63.3848 493.832 106.148 440.611C190.944 335.077 329.872 321.615 473.225 355.035C666.685 400.136 754.681 304.09 867.585 344.627C980.49 385.164 1018.96 561.792 1018.96 561.792Z" fill="#2695A4"></path><path d="M1006.12 584.136H82.1566C75.3106 584.136 70.0538 577.866 69.9316 569.658L69.3203 561.678H1018.96L1018.35 569.658C1018.22 577.866 1012.97 584.136 1006.12 584.136Z" fill="#F06868"></path><g filter="url(#filter1_d)"><path d="M819.627 432.922H819.749H615.102L585.273 541.564H585.396L585.64 540.652H726.839H728.55H847.989H849.211L819.627 432.922Z" fill="#EBEBEB"></path></g><g filter="url(#filter2_d)"><path d="M827.025 427.158H827.147H622.501L592.672 535.8H592.794L593.039 534.888H734.237H735.949H855.387H856.61L827.025 427.158Z" fill="white"></path></g><g opacity="0.4"><path d="M664.431 440.382H637.781L637.414 442.434H664.309L664.431 440.382Z" fill="#2D5C62"></path><path d="M703.307 447.564H636.192L635.703 449.616H703.185L703.307 447.564Z" fill="#2D5C62"></path><path d="M723.846 455.088H634.481L633.992 457.254H723.846V455.088Z" fill="#2D5C62"></path><path d="M673.72 462.84H632.766L632.277 465.12H673.598L673.72 462.84Z" fill="#2D5C62"></path><path d="M630.934 470.934L630.445 473.214H736.314L736.436 470.934" fill="#2D5C62"></path><path d="M701.594 479.37H629.1L628.488 481.764H701.471L701.594 479.37Z" fill="#2D5C62"></path><path d="M680.932 488.034H627.142L626.531 490.542H680.81L680.932 488.034Z" fill="#2D5C62"></path><path d="M716.385 497.154H625.064L624.453 499.776H716.263L716.385 497.154Z" fill="#2D5C62"></path><path d="M733.501 506.616H622.865L622.254 509.352H733.379L733.501 506.616Z" fill="#2D5C62"></path></g><path d="M788.272 309.168H555.63C548.295 309.168 542.305 303.582 542.305 296.742V153.672C542.305 146.832 548.295 141.246 555.63 141.246H788.272C795.607 141.246 801.597 146.832 801.597 153.672V296.742C801.597 303.696 795.607 309.168 788.272 309.168Z" fill="#2D5C62"></path><path opacity="0.5" d="M869.933 281.808H579.711C574.455 281.808 570.176 277.814 570.176 272.907V175.113C570.176 170.206 574.455 166.212 579.711 166.212H869.933C875.19 166.212 879.468 170.206 879.468 175.113V273.021C879.346 277.928 875.19 281.808 869.933 281.808Z" fill="#11CBD7"></path><g style="mix-blend-mode:multiply" filter="url(#filter3_d)"><path d="M784.612 326.66H559.177C553.743 326.66 548.541 329.725 547.616 333.534L530.506 401.247C529.234 406.263 533.396 410.35 539.755 410.35H804.15C810.508 410.35 814.67 406.263 813.398 401.247L796.288 333.534C795.248 329.725 790.046 326.66 784.612 326.66Z" fill="white"></path></g><path d="M791.084 309.168H552.697C546.951 309.168 541.45 312.93 540.472 317.604L522.379 400.71C521.034 406.866 525.435 411.882 532.159 411.882H811.744C818.468 411.882 822.869 406.866 821.524 400.71L803.431 317.604C802.331 312.93 796.83 309.168 791.084 309.168Z" fill="#11CBD7"></path><path d="M720.545 350.322H705.508L705.997 360.126H721.278L720.545 350.322Z" fill="#2D5C62"></path><g style="mix-blend-mode:multiply" filter="url(#filter4_i)"><path d="M575.19 316.692H556.731L555.875 321.708H574.579L575.19 316.692Z" fill="#2D5C62"></path></g><path d="M569.932 324.444H552.744L550.996 333.564H568.475L569.932 324.444Z" fill="#2D5C62"></path><path d="M590.227 324.444H575.68L574.457 333.564H589.127L590.227 324.444Z" fill="#2D5C62"></path><path d="M610.396 324.444H595.97L594.992 333.564H609.662L610.396 324.444Z" fill="#2D5C62"></path><path d="M630.691 324.444H616.144L615.41 333.564H630.202L630.691 324.444Z" fill="#2D5C62"></path><path d="M650.86 324.444H636.312L635.945 333.564H650.615L650.86 324.444Z" fill="#2D5C62"></path><path d="M671.033 324.444H656.608L656.363 333.564H671.155L671.033 324.444Z" fill="#2D5C62"></path><path d="M691.325 324.444H676.777L676.9 333.564H691.57L691.325 324.444Z" fill="#2D5C62"></path><path d="M711.496 324.444H697.07L697.437 333.564H712.107L711.496 324.444Z" fill="#2D5C62"></path><path d="M731.79 324.444H717.242L717.853 333.564H732.523L731.79 324.444Z" fill="#2D5C62"></path><path d="M751.962 324.444H737.414L738.392 333.564H753.062L751.962 324.444Z" fill="#2D5C62"></path><path d="M786.042 324.444H756.973L758.314 333.564H787.831L786.042 324.444Z" fill="#2D5C62"></path><path d="M594.748 336.186H580.078L578.855 345.534H593.77L594.748 336.186Z" fill="#2D5C62"></path><path d="M615.407 336.186H600.615L599.637 345.534H614.673L615.407 336.186Z" fill="#2D5C62"></path><path d="M635.946 336.186H621.154L620.543 345.534H635.457L635.946 336.186Z" fill="#2D5C62"></path><path d="M656.483 336.186H641.691L641.324 345.534H656.239L656.483 336.186Z" fill="#2D5C62"></path><path d="M677.023 336.186H662.23V345.534H677.145L677.023 336.186Z" fill="#2D5C62"></path><path d="M697.562 336.186H682.77L683.014 345.534H697.929L697.562 336.186Z" fill="#2D5C62"></path><path d="M718.1 336.186H703.43L703.796 345.534H718.833L718.1 336.186Z" fill="#2D5C62"></path><path d="M738.639 336.186H723.969L724.702 345.534H739.617L738.639 336.186Z" fill="#2D5C62"></path><path d="M759.296 336.186H744.504L745.482 345.534H760.396L759.296 336.186Z" fill="#2D5C62"></path><path d="M788.514 336.186H764.309L765.531 345.534H790.103L788.514 336.186Z" fill="#2D5C62"></path><path d="M594.748 350.322H579.711L578.488 360.126H593.77L594.748 350.322Z" fill="#2D5C62"></path><path d="M615.776 350.322H600.74L599.762 360.126H615.043L615.776 350.322Z" fill="#2D5C62"></path><path d="M636.679 350.322H621.642L621.031 360.126H636.312L636.679 350.322Z" fill="#2D5C62"></path><path d="M657.708 350.322H642.671L642.305 360.126H657.586L657.708 350.322Z" fill="#2D5C62"></path><path d="M678.611 350.322H663.574V360.126H678.733L678.611 350.322Z" fill="#2D5C62"></path><path d="M699.638 350.322H684.602L684.846 360.126H700.005L699.638 350.322Z" fill="#2D5C62"></path><path d="M741.572 350.322H726.535L727.269 360.126H742.55L741.572 350.322Z" fill="#2D5C62"></path><path d="M762.474 350.322H747.438L748.538 360.126H763.819L762.474 350.322Z" fill="#2D5C62"></path><path d="M792.425 350.322H767.73L768.953 360.126H794.014L792.425 350.322Z" fill="#2D5C62"></path><path d="M572.5 336.414H549.273L547.684 345.876H571.278L572.5 336.414Z" fill="#2D5C62"></path><path d="M570.665 349.98H546.949L545.359 359.784H569.32L570.665 349.98Z" fill="#2D5C62"></path><g style="mix-blend-mode:multiply" filter="url(#filter5_i)"><path d="M779.589 316.692H761.129L761.74 321.708H780.322L779.589 316.692Z" fill="#2D5C62"></path></g><g style="mix-blend-mode:multiply" filter="url(#filter6_i)"><path d="M756.486 316.692H579.835L579.102 321.708H757.098L756.486 316.692Z" fill="#2D5C62"></path></g><g style="mix-blend-mode:multiply" filter="url(#filter7_i)"><path d="M727.877 364.002H626.654C623.109 364.002 620.053 366.51 619.808 369.588L618.097 395.01C617.852 398.316 620.664 401.052 624.454 401.052H730.811C734.601 401.052 737.291 398.316 737.046 395.01L734.846 369.588C734.601 366.51 731.423 364.002 727.877 364.002Z" fill="#2D5C62"></path></g><g style="mix-blend-mode:exclusion"><path d="M151.545 544.527C148.611 544.527 146.288 543.843 144.944 542.703C143.599 541.563 143.232 539.967 144.21 538.143L177.462 474.759C178.196 473.277 180.029 471.909 182.352 470.883C184.675 469.857 187.364 469.287 190.054 469.287H475.508C478.197 469.287 480.52 469.857 482.109 470.883C483.698 471.909 484.554 473.277 484.31 474.759L474.163 538.143C473.918 539.853 472.451 541.449 470.373 542.703C468.295 543.843 465.483 544.527 462.549 544.527H151.545ZM475.752 467.691H190.91C183.941 467.691 176.729 470.769 174.65 474.759L141.154 538.143C138.709 542.703 142.988 546.351 150.567 546.351H462.182C469.762 546.351 476.486 542.589 477.219 538.143L487.244 474.759C487.855 470.883 482.72 467.691 475.752 467.691Z" fill="#11CBD7"></path></g><path d="M283.501 482.448H256.361C249.638 482.448 242.792 485.526 240.958 489.402L225.432 523.944C223.598 528.162 227.755 531.582 234.968 531.582H263.574C270.665 531.582 277.877 528.162 279.467 523.944L292.914 489.402C294.503 485.64 290.225 482.448 283.501 482.448Z" fill="#383838"></path><g filter="url(#filter8_d)"><path d="M164.797 538.878C161.863 538.878 159.662 538.194 158.317 537.054C156.973 535.914 156.606 534.318 157.584 532.608L190.469 469.908C191.203 468.426 193.036 467.058 195.359 466.146C197.682 465.12 200.371 464.55 203.061 464.55H485.458C488.148 464.55 490.471 465.12 492.06 466.146C493.649 467.172 494.505 468.426 494.26 469.908L484.236 532.608C483.991 534.318 482.524 535.914 480.446 537.054C478.368 538.194 475.556 538.878 472.744 538.878H164.797Z" fill="#11CBD7"></path></g><g filter="url(#filter9_d)"><path d="M282.755 487.315C280.441 486.287 277.601 485.67 274.656 485.465C262.455 484.54 251.095 491.632 246.046 502.527C242.297 510.643 229.652 530.733 245.236 533.667C256.015 535.697 264.739 534.944 270.185 532.421C280.345 527.715 282.37 516.102 288.119 499.649C289.697 494.921 287.593 489.576 282.965 487.418C282.755 487.315 282.755 487.315 282.755 487.315Z" fill="#CACACA"></path></g><g filter="url(#filter10_d)"><path d="M282.353 482.02C279.881 480.972 276.847 480.344 273.701 480.134C260.667 479.191 248.532 486.421 243.139 497.527C239.133 505.801 227.794 525.215 241.553 527.528C273.701 532.931 278.65 520.355 288.083 494.593C289.768 489.774 287.521 484.325 282.577 482.125C282.353 482.02 282.353 482.02 282.353 482.02Z" fill="white"></path></g><path d="M528.387 280.098H522.885C516.895 280.098 514.083 277.59 514.083 268.356V249.66C514.083 244.302 512.005 242.706 508.949 241.794H508.582V236.664H508.949C512.005 235.866 514.083 234.156 514.083 228.912V209.988C514.083 200.754 516.895 198.246 522.885 198.246H528.387V201.438H524.597C520.563 201.438 518.607 202.806 518.607 210.102V229.14C518.607 234.384 516.895 237.462 512.983 238.83V239.628C517.017 240.996 518.607 244.188 518.607 249.432V268.242C518.607 275.538 520.563 276.906 524.597 276.906H528.387V280.098Z" fill="#11CBD7"></path><path d="M768.957 156.522H765.289V154.356H767.856C770.546 154.356 771.891 153.444 771.891 148.542V135.888C771.891 132.354 772.991 130.188 775.68 129.276V128.706C772.991 127.794 771.891 125.742 771.891 122.094V109.326C771.891 104.424 770.546 103.512 767.856 103.512H765.289V101.346H768.957C772.991 101.346 774.825 103.056 774.825 109.326V122.094C774.825 125.628 776.292 126.768 778.248 127.338H778.492V130.758H778.37C776.292 131.328 774.947 132.468 774.947 136.002V148.542C774.947 154.812 772.991 156.522 768.957 156.522Z" fill="#11CBD7"></path><path d="M563.942 120.612V125.286H561.497V129.96H558.93V125.286H561.375V120.612H563.942V115.938H566.509V120.612H563.942Z" fill="#2D5C62"></path><path d="M576.29 120.612V125.286H573.845V129.96H571.277V125.286H573.722V120.612H576.29V115.938H578.857V120.612H576.29Z" fill="#2D5C62"></path><path d="M604.163 129.732V127.452H601.718V125.172H599.273V129.732H596.828V116.052H604.163V118.332H606.608V123.006H604.163V127.566H606.608V129.846H604.163V129.732ZM604.163 118.332H599.273V122.892H604.163V118.332Z" fill="#2D5C62"></path><path d="M613.942 125.172V127.452H618.832V129.732H613.82V127.452H611.375V120.612H613.82V118.332H618.832V120.612H621.277V125.286H613.942V125.172ZM618.832 120.612H613.942V122.892H618.832V120.612Z" fill="#2D5C62"></path><path d="M628.613 129.732V127.452H626.168V120.612H628.613V118.332H632.525H635.948V129.732H628.613ZM633.503 120.612H628.613V127.452H633.503V120.612Z" fill="#2D5C62"></path><path d="M643.285 129.732V127.452H640.84V120.612H643.285V118.332H648.297V120.726H643.407V127.566H648.297V129.846H643.285V129.732Z" fill="#2D5C62"></path><path d="M655.507 129.732V127.452H653.062V120.612H650.617V118.218H653.062V115.938H655.507V118.218H657.952V120.612H655.507V127.452H657.952V129.732H655.507Z" fill="#2D5C62"></path><g opacity="0.5" filter="url(#filter11_i)"><path d="M292.283 88.2358H246.605C246.053 88.2358 245.605 88.6836 245.605 89.2358V98.5218C245.605 99.0741 246.053 99.5218 246.605 99.5218H292.283C292.835 99.5218 293.283 99.0741 293.283 98.5218V89.2358C293.283 88.6836 292.835 88.2358 292.283 88.2358Z" fill="#60DCE4"></path></g><g opacity="0.5" filter="url(#filter12_i)"><path d="M292.283 121.752H246.605C246.053 121.752 245.605 122.2 245.605 122.752V132.038C245.605 132.59 246.053 133.038 246.605 133.038H292.283C292.835 133.038 293.283 132.59 293.283 132.038V122.752C293.283 122.2 292.835 121.752 292.283 121.752Z" fill="#60DCE4"></path></g><g opacity="0.5" filter="url(#filter13_i)"><path d="M292.283 155.268H246.605C246.053 155.268 245.605 155.716 245.605 156.268V165.554C245.605 166.106 246.053 166.554 246.605 166.554H292.283C292.835 166.554 293.283 166.106 293.283 165.554V156.268C293.283 155.716 292.835 155.268 292.283 155.268Z" fill="#60DCE4"></path></g><g opacity="0.5" filter="url(#filter14_i)"><path d="M292.283 188.898H246.605C246.053 188.898 245.605 189.346 245.605 189.898V199.184C245.605 199.736 246.053 200.184 246.605 200.184H292.283C292.835 200.184 293.283 199.736 293.283 199.184V189.898C293.283 189.346 292.835 188.898 292.283 188.898Z" fill="#60DCE4"></path></g><g opacity="0.5" filter="url(#filter15_i)"><path d="M292.283 222.414H246.605C246.053 222.414 245.605 222.862 245.605 223.414V232.7C245.605 233.252 246.053 233.7 246.605 233.7H292.283C292.835 233.7 293.283 233.252 293.283 232.7V223.414C293.283 222.862 292.835 222.414 292.283 222.414Z" fill="#60DCE4"></path></g><path d="M305.607 259.35H259.93C259.377 259.35 258.93 259.798 258.93 260.35V266.102C258.93 266.654 259.377 267.102 259.93 267.102H305.607C306.159 267.102 306.607 266.654 306.607 266.102V260.35C306.607 259.798 306.159 259.35 305.607 259.35Z" fill="#60DCE4"></path><path d="M305.607 244.644H259.93C259.377 244.644 258.93 245.092 258.93 245.644V251.396C258.93 251.948 259.377 252.396 259.93 252.396H305.607C306.159 252.396 306.607 251.948 306.607 251.396V245.644C306.607 245.092 306.159 244.644 305.607 244.644Z" fill="#60DCE4"></path><path d="M305.607 274.056H259.93C259.377 274.056 258.93 274.504 258.93 275.056V280.808C258.93 281.36 259.377 281.808 259.93 281.808H305.607C306.159 281.808 306.607 281.36 306.607 280.808V275.056C306.607 274.504 306.159 274.056 305.607 274.056Z" fill="#60DCE4"></path><path d="M305.607 288.762H259.93C259.377 288.762 258.93 289.21 258.93 289.762V295.514C258.93 296.066 259.377 296.514 259.93 296.514H305.607C306.159 296.514 306.607 296.066 306.607 295.514V289.762C306.607 289.21 306.159 288.762 305.607 288.762Z" fill="#60DCE4"></path><path d="M230.934 98.1542L236.802 93.8222L230.934 89.0342" stroke="#11CBD7" stroke-width="2" stroke-miterlimit="10" stroke-linecap="round"></path><path d="M207.461 59.8501L212.106 65.3221L217.119 59.8501" stroke="#11CBD7" stroke-width="2" stroke-miterlimit="10" stroke-linecap="round"></path><path d="M230.934 131.898L236.802 127.566L230.934 122.892" stroke="#11CBD7" stroke-width="2" stroke-miterlimit="10" stroke-linecap="round"></path><path d="M230.934 165.756L236.802 161.31L230.934 156.636" stroke="#11CBD7" stroke-width="2" stroke-miterlimit="10" stroke-linecap="round"></path><path d="M230.934 199.5L236.802 195.054L230.934 190.38" stroke="#11CBD7" stroke-width="2" stroke-miterlimit="10" stroke-linecap="round"></path><path d="M228.977 225.948L233.622 231.42L238.757 225.948" stroke="#11CBD7" stroke-width="2" stroke-miterlimit="10" stroke-linecap="round"></path><g opacity="0.5" filter="url(#filter16_i)"><path d="M285.314 56.8857H225.578C225.026 56.8857 224.578 57.3335 224.578 57.8857V67.1717C224.578 67.724 225.026 68.1717 225.578 68.1717H285.314C285.867 68.1717 286.314 67.724 286.314 67.1717V57.8857C286.314 57.3335 285.867 56.8857 285.314 56.8857Z" fill="#60DCE4"></path></g><path d="M247.191 242.25V300.504" stroke="#11CBD7" stroke-miterlimit="10"></path><path d="M332.645 82.7638V81.1678H334.234V76.6078H332.645V75.0118H334.234V73.5298H335.945V81.1678H337.535V82.7638H332.645Z" fill="#11CBD7"></path><path d="M332.646 99.1801V97.5841H334.235V96.1021H335.824V94.6201H337.413V91.6561H334.235V93.1381H332.523V91.5421H334.113V90.0601H337.413V91.5421H339.003V94.6201H337.413V96.1021H335.824V97.5841H339.125V99.1801H332.646Z" fill="#11CBD7"></path><path d="M337.535 114V115.596H334.234V114.114H332.645V112.518H334.356V114H337.535V110.922H334.234V109.326H337.535V107.844H332.645V106.248H339.246V107.73V109.326H337.657V110.808H339.246V113.886H337.535V114Z" fill="#11CBD7"></path><path d="M339.125 130.416V131.898H337.413V130.416H332.523V127.338H334.113V125.856H335.702V124.374H337.291V122.892H339.003V128.934H340.592V130.416H339.125ZM337.413 125.856H335.824V127.338H334.235V128.82H337.413V125.856V125.856Z" fill="#11CBD7"></path><path d="M337.535 146.832V148.314H332.645V146.718L337.535 146.832V143.754H332.645V139.194H339.246V140.79H334.356V142.272H337.657V143.754H339.246V146.832H337.535Z" fill="#11CBD7"></path><path d="M337.535 163.248V164.73H334.234V163.248H332.645V157.092H334.234V155.61H337.535V157.206H334.234V158.688H337.535V160.17H339.124V163.248H337.535ZM337.412 160.284H334.234V163.248H337.412V160.284Z" fill="#11CBD7"></path><path d="M337.535 175.104V178.182H335.823V181.26H334.112V179.778V178.296H335.701V175.218L337.535 175.104V173.622H332.645V172.026H339.246V175.104H337.535Z" fill="#11CBD7"></path><path d="M337.535 196.08V197.562H334.234V196.08H332.645V193.002H334.234V191.52H332.645V189.924H334.234V188.442H337.535V189.924H339.124V191.52H337.535V193.002H339.124V196.08H337.535ZM337.412 190.038H334.234V191.52H337.412V190.038ZM337.412 193.116H334.234V196.08H337.412V193.116Z" fill="#11CBD7"></path><path d="M337.535 212.496V213.978H334.234V212.496H337.535V211.014H334.234V209.532H332.645V206.454H334.234V204.972H337.535V206.454H339.124V212.61H337.535V212.496ZM337.412 206.454H334.234V209.418H337.412V206.454Z" fill="#11CBD7"></path><path d="M325.188 230.508V228.912H326.777V224.352H325.188V222.756H326.777V221.274H328.488V228.912H330.077V230.508H325.188V230.508Z" fill="#11CBD7"></path><path d="M338.269 228.912V230.394H334.968V228.912H333.379V222.756H334.968V221.274H338.269V222.756H339.858V228.912H338.269ZM338.269 222.87H335.09V228.912H338.269V222.87Z" fill="#11CBD7"></path><path d="M326.898 246.924V245.328H328.488V240.768H326.898V239.172H328.488V237.69H330.199V245.328H331.788V246.924H326.898V246.924Z" fill="#11CBD7"></path><path d="M334.969 246.924V245.328H336.558V240.768H334.969V239.172H336.558V237.69H338.27V245.328H339.859V246.924H334.969V246.924Z" fill="#11CBD7"></path><path d="M325.188 263.34V261.744H326.777V257.184H325.188V255.588H326.777V254.106H328.488V261.744H330.077V263.34H325.188V263.34Z" fill="#11CBD7"></path><path d="M333.379 263.34V261.744H334.968V260.262H336.557V258.78H338.147V255.816H334.968V257.298H333.379V255.702H334.968V254.22H338.269V255.702H339.858V258.78H338.269V260.262H336.68V261.744H339.98V263.34H333.379Z" fill="#11CBD7"></path><path d="M325.188 279.756V278.16H326.777V273.6H325.188V272.004H326.777V270.522H328.488V278.16H330.077V279.756H325.188V279.756Z" fill="#11CBD7"></path><path d="M338.269 278.16V279.642H334.968V278.16H333.379V276.564H335.09V278.046L338.269 278.16V275.082H334.968V273.486H338.269V272.004H333.379V270.408H339.98V271.89V273.486H338.269V274.968H339.858V278.046H338.269V278.16Z" fill="#11CBD7"></path><path d="M365.408 88.0079V93.5939H362.474V99.1799H359.418V93.5939H362.352V88.0079H365.408V82.4219H368.464V88.0079H365.408Z" fill="#11CBD7"></path><path d="M380.445 88.0079V93.5939H377.388V99.1799H374.332V93.5939H377.266V88.0079H380.445V82.4219H383.501V88.0079H380.445Z" fill="#11CBD7"></path><path opacity="0.28" d="M564.921 85.1582H447.684V96.4442H564.921V85.1582Z" fill="#11CBD7"></path><path d="M397.07 85.7281V84.2461H398.66V85.7281H397.07ZM397.07 94.3921V87.2101H398.66V94.3921H397.07Z" fill="#11CBD7"></path><path d="M407.831 94.392V88.692H406.364V94.392H404.775V88.692H403.308V94.392H401.719V87.21H404.775V88.692H406.242V87.21H407.831V88.692H409.421V94.392H407.831Z" fill="#11CBD7"></path><path d="M416.997 92.91V94.392H413.941V97.242H412.352V87.21H416.997V88.692H418.586V93.024H416.997V92.91ZM416.997 88.692H413.941V92.91H416.997V88.692Z" fill="#11CBD7"></path><path d="M426.29 92.9102V94.3922H423.234V92.9102H421.645V88.5782H423.234V87.0962H426.29V88.5782H427.879V92.9102H426.29ZM426.168 88.6922H423.112V92.9102H426.168V88.6922Z" fill="#11CBD7"></path><path d="M432.402 88.692V94.392H430.812V87.21H435.458V88.692H432.402Z" fill="#11CBD7"></path><path d="M438.514 94.3918V92.9098H436.925V88.5778H435.336V87.0958H436.925V85.6138H438.514V87.0958H440.104V88.5778H438.514V92.7958H440.104V94.2778H438.514V94.3918Z" fill="#11CBD7"></path><path opacity="0.28" d="M430.567 123.006H393.281V131.898H430.567V123.006Z" fill="#11CBD7"></path><path opacity="0.28" d="M518.711 123.006H436.559V131.898H518.711V123.006Z" fill="#11CBD7"></path><path d="M353.797 123.462V122.322H355.019V123.462H353.797ZM353.797 130.188V124.602H355.019V130.188H353.797Z" fill="#11CBD7"></path><path d="M362.23 130.188V125.742H361.007V130.188H359.785V125.742H358.562V130.188H357.34V124.602H359.785V125.742H361.007V124.602H362.23V125.742H363.452V130.188H362.23Z" fill="#11CBD7"></path><path d="M369.445 129.048V130.188H367V132.468H365.777V124.602H369.445V125.742H370.667V129.162H369.445V129.048ZM369.445 125.742H367.122V129.048H369.445V125.742Z" fill="#11CBD7"></path><path d="M376.656 129.048V130.188H374.211V129.048H372.988V125.628H374.211V124.488H376.656V125.628H377.878V129.048H376.656ZM376.534 125.742H374.211V129.048H376.534V125.742Z" fill="#11CBD7"></path><path d="M381.422 125.742V130.188H380.199V124.602H383.867V125.742H381.422Z" fill="#11CBD7"></path><path d="M386.191 130.188V129.048H384.969V125.742H383.746V124.602H384.969V123.462H386.191V124.602H387.414V125.742H386.191V129.048H387.414V130.188H386.191Z" fill="#11CBD7"></path><path opacity="0.28" d="M430.567 140.448H393.281V149.34H430.567V140.448Z" fill="#11CBD7"></path><path d="M353.797 141.018V139.878H355.019V141.018H353.797ZM353.797 147.744V142.158H355.019V147.744H353.797Z" fill="#11CBD7"></path><path d="M362.23 147.744V143.298H361.007V147.744H359.785V143.298H358.562V147.744H357.34V142.158H359.785V143.298H361.007V142.158H362.23V143.298H363.452V147.744H362.23Z" fill="#11CBD7"></path><path d="M369.445 146.604V147.744H367V150.024H365.777V142.158H369.445V143.298H370.667V146.718H369.445V146.604ZM369.445 143.298H367.122V146.604H369.445V143.298Z" fill="#11CBD7"></path><path d="M376.656 146.604V147.744H374.211V146.604H372.988V143.184H374.211V142.044H376.656V143.184H377.878V146.604H376.656ZM376.534 143.298H374.211V146.604H376.534V143.298Z" fill="#11CBD7"></path><path d="M381.422 143.298V147.744H380.199V142.158H383.867V143.298H381.422Z" fill="#11CBD7"></path><path d="M386.191 147.744V146.604H384.969V143.298H383.746V142.158H384.969V141.018H386.191V142.158H387.414V143.298H386.191V146.604H387.414V147.744H386.191Z" fill="#11CBD7"></path><path opacity="0.28" d="M411.373 171.456H363.695V182.742H411.373V171.456Z" fill="#11CBD7"></path><path opacity="0.28" d="M497.437 171.456H418.219V182.742H497.437V171.456Z" fill="#11CBD7"></path><path opacity="0.28" d="M411.373 253.08H363.695V264.366H411.373V253.08Z" fill="#11CBD7"></path><path opacity="0.28" d="M452.33 208.848H404.652V216.6H452.33V208.848Z" fill="#11CBD7"></path><path opacity="0.28" d="M452.33 194.142H404.652V201.894H452.33V194.142Z" fill="#11CBD7"></path><path opacity="0.28" d="M452.33 223.554H404.652V231.306H452.33V223.554Z" fill="#11CBD7"></path><path opacity="0.28" d="M452.33 238.26H404.652V246.012H452.33V238.26Z" fill="#11CBD7"></path><path d="M393.035 191.862V250.002" stroke="#11CBD7" stroke-miterlimit="10"></path><path opacity="0.28" d="M199.025 120.783H175.309V142.899H199.025V120.783Z" fill="#0A99A2"></path><path opacity="0.28" d="M199.025 158.745H175.309V180.861H199.025V158.745Z" fill="#0A99A2"></path><path opacity="0.28" d="M199.025 196.707H175.309V218.823H199.025V196.707Z" fill="#0A99A2"></path><path opacity="0.28" d="M199.025 234.555H175.309V256.671H199.025V234.555Z" fill="#0A99A2"></path><path opacity="0.28" d="M199.025 272.517H175.309V294.633H199.025V272.517Z" fill="#0A99A2"></path><path d="M172.374 171.855L163.816 179.949" stroke="#139BA4" stroke-width="2" stroke-miterlimit="10" stroke-linecap="round"></path><path d="M178.365 174.135C183.024 174.135 186.8 170.614 186.8 166.269C186.8 161.925 183.024 158.403 178.365 158.403C173.706 158.403 169.93 161.925 169.93 166.269C169.93 170.614 173.706 174.135 178.365 174.135Z" stroke="#139BA4" stroke-width="2" stroke-miterlimit="10" stroke-linecap="round"></path><path d="M166.227 249.987H161.472C160.245 249.987 159.172 248.986 159.172 247.842V243.408C159.172 242.264 160.245 241.263 161.472 241.263H166.227C167.454 241.263 168.528 242.264 168.528 243.408V247.842C168.681 248.986 167.607 249.987 166.227 249.987Z" stroke="#139BA4" stroke-width="2" stroke-miterlimit="10" stroke-linecap="round"></path><path d="M183.399 247.27H178.644C177.417 247.27 176.344 246.269 176.344 245.124V240.691C176.344 239.547 177.417 238.545 178.644 238.545H183.399C184.626 238.545 185.7 239.547 185.7 240.691V245.124C185.7 246.269 184.626 247.27 183.399 247.27Z" stroke="#139BA4" stroke-width="2" stroke-miterlimit="10" stroke-linecap="round"></path><path d="M166.227 261.858H161.472C160.245 261.858 159.172 260.857 159.172 259.713V255.279C159.172 254.135 160.245 253.134 161.472 253.134H166.227C167.454 253.134 168.528 254.135 168.528 255.279V259.713C168.681 260.857 167.607 261.858 166.227 261.858Z" stroke="#139BA4" stroke-width="2" stroke-miterlimit="10" stroke-linecap="round"></path><path d="M180.028 261.858H175.273C174.046 261.858 172.973 260.857 172.973 259.713V255.279C172.973 254.135 174.046 253.134 175.273 253.134H180.028C181.255 253.134 182.328 254.135 182.328 255.279V259.713C182.328 260.857 181.255 261.858 180.028 261.858Z" stroke="#139BA4" stroke-width="2" stroke-miterlimit="10" stroke-linecap="round"></path><path d="M636.07 184.224V183.312H636.926V180.804H636.07V179.892H636.926V179.094H637.904V183.312H638.76V184.224H636.07Z" fill="#11CBD7"></path><path d="M636.069 193.458V192.546H636.924V191.748H637.78V190.836H638.636V189.126H636.802V189.924H635.824V189.012H636.68V188.214H638.514V189.012H639.369V190.722H638.514V191.52H637.658V192.318H639.492V193.23H636.069V193.458Z" fill="#11CBD7"></path><path d="M638.881 201.666V202.464H637.047V201.666H636.191V200.754H637.169V201.552L638.881 201.666V199.956H637.047V199.044H638.881V198.246H636.191V197.334H639.859V198.132V199.044H639.003V199.842H639.859V201.552H638.881V201.666Z" fill="#11CBD7"></path><path d="M639.738 210.9V211.698H638.76V210.9H636.07V209.19H636.926V208.392H637.782V207.594H638.638V206.796H639.616V210.216H640.471V211.128H639.738V210.9ZM638.76 208.278H637.904V209.076H637.048V209.874H638.882V208.278H638.76Z" fill="#11CBD7"></path><path d="M638.881 220.02V220.818H636.191V219.906L638.881 220.02V218.31H636.191V215.802H639.859V216.714H637.169V217.512H639.003V218.31H639.859V220.02H638.881Z" fill="#11CBD7"></path><path d="M638.881 229.14V229.938H637.047V229.14H636.191V225.72H637.047V224.922H638.881V225.834H637.047V226.632H638.881V227.43H639.737V229.14H638.881ZM638.759 227.43H636.925V229.14H638.759V227.43Z" fill="#11CBD7"></path><path d="M638.881 235.752V237.462H638.025V239.172H637.047V238.374V237.576H637.903V235.866L638.881 235.752V234.954H636.191V234.042H639.859V235.752H638.881Z" fill="#11CBD7"></path><path d="M638.881 247.494V248.292H637.047V247.494H636.191V245.784H637.047V244.986H636.191V244.074H637.047V243.276H638.881V244.074H639.737V244.986H638.881V245.784H639.737V247.494H638.881ZM638.759 244.074H636.925V244.872H638.759V244.074ZM638.759 245.784H636.925V247.494H638.759V245.784Z" fill="#11CBD7"></path><path d="M638.881 256.614V257.412H637.047V256.5L638.881 256.614V255.816H637.047V255.018H636.191V253.308H637.047V252.396H638.881V253.194H639.737V256.614H638.881ZM638.759 253.194H636.925V254.904H638.759V253.194Z" fill="#11CBD7"></path><path d="M632.035 266.646V265.734H632.891V263.226H632.035V262.314H632.891V261.516H633.869V265.734H634.725V266.646H632.035Z" fill="#11CBD7"></path><path d="M639.248 265.734V266.532H637.414V265.734H636.559V262.314H637.414V261.516H639.248V262.314H640.104V265.734H639.248ZM639.248 262.428H637.414V265.848H639.248V262.428Z" fill="#11CBD7"></path><path d="M632.891 275.766V274.854H633.746V272.346H632.891V271.434H633.746V270.636H634.724V274.854H635.58V275.766H632.891Z" fill="#11CBD7"></path><path d="M637.414 275.766V274.854H638.27V272.346H637.414V271.434H638.27V270.636H639.248V274.854H640.104V275.766H637.414Z" fill="#11CBD7"></path><path d="M632.035 284.886V283.974H632.891V281.466H632.035V280.554H632.891V279.756H633.869V283.974H634.725V284.886H632.035Z" fill="#11CBD7"></path><path d="M636.559 284.886V283.974H637.414V283.176H638.27V282.378H639.126V280.668H637.292V281.466H636.559V280.554H637.414V279.756H639.248V280.554H640.104V282.264H639.248V283.062H638.392V283.86H640.226V284.772H636.559V284.886Z" fill="#11CBD7"></path><path d="M632.035 294.12V293.208H632.891V290.7H632.035V289.788H632.891V288.99H633.869V293.208H634.725V294.12H632.035Z" fill="#11CBD7"></path><path d="M639.248 293.208V294.006H637.414V293.208H636.559V292.296H637.537V293.094L639.248 293.208V291.498H637.414V290.586H639.248V289.788H636.559V288.876H640.226V289.674V290.586H639.37V291.384H640.226V293.094H639.248V293.208Z" fill="#11CBD7"></path><path d="M654.407 187.188V190.266H652.696V193.344H650.984V190.266H652.696V187.188H654.407V183.996H656.119V187.188H654.407Z" fill="#11CBD7"></path><path d="M662.72 187.188V190.266H661.008V193.344H659.297V190.266H661.008V187.188H662.72V183.996H664.431V187.188H662.72Z" fill="#11CBD7"></path><path d="M765.654 185.592H700.25V191.862H765.654V185.592Z" fill="#11CBD7"></path><path d="M672.012 185.934V185.136H672.868V185.934H672.012ZM672.012 190.722V186.732H672.868V190.722H672.012Z" fill="#11CBD7"></path><path d="M678.001 190.722V187.53H677.145V190.722H676.29V187.53H675.434V190.722H674.578V186.732H676.29V187.53H677.145V186.732H678.001V187.53H678.857V190.722H678.001Z" fill="#11CBD7"></path><path d="M683.138 189.924V190.722H681.426V192.318H680.57V186.732H683.138V187.53H683.993V189.924H683.138V189.924ZM683.138 187.53H681.426V189.924H683.138V187.53Z" fill="#11CBD7"></path><path d="M688.27 189.924V190.722H686.559V189.924H685.703V187.53H686.559V186.732H688.27V187.53H689.126V189.924H688.27ZM688.27 187.53H686.559V189.924H688.27V187.53Z" fill="#11CBD7"></path><path d="M691.696 187.53V190.722H690.84V186.732H693.407V187.53H691.696Z" fill="#11CBD7"></path><path d="M695.118 190.722V189.924H694.262V187.53H693.406V186.732H694.262V185.934H695.118V186.732H695.974V187.53H695.118V189.924H695.974V190.722H695.118Z" fill="#11CBD7"></path><path d="M690.716 206.682H669.934V211.584H690.716V206.682Z" fill="#11CBD7"></path><path d="M739.859 206.682H694.016V211.584H739.859V206.682Z" fill="#11CBD7"></path><path d="M647.93 207.024V206.34H648.663V207.024H647.93ZM647.93 210.786V207.708H648.663V210.786H647.93Z" fill="#11CBD7"></path><path d="M652.572 210.786V208.278H651.961V210.786H651.228V208.278H650.616V210.786H649.883V207.708H651.228V208.278H651.839V207.708H652.572V208.278H653.184V210.786H652.572Z" fill="#11CBD7"></path><path d="M656.609 210.102V210.672H655.265V211.926H654.531V207.594H656.609V208.164H657.221V210.102H656.609V210.102ZM656.609 208.278H655.265V210.102H656.609V208.278Z" fill="#11CBD7"></path><path d="M660.641 210.102V210.672H659.296V210.102H658.562V208.164H659.174V207.594H660.519V208.164H661.13V210.102H660.641ZM660.641 208.278H659.296V210.102H660.641V208.278Z" fill="#11CBD7"></path><path d="M663.331 208.278V210.786H662.598V207.708H664.676V208.392H663.331V208.278Z" fill="#11CBD7"></path><path d="M665.898 210.786V210.216H665.287V208.392H664.676V207.708H665.287V207.138H666.021V207.708H666.632V208.392H666.021V210.216H666.632V210.9H665.898V210.786Z" fill="#11CBD7"></path><path d="M690.716 216.486H669.934V221.388H690.716V216.486Z" fill="#11CBD7"></path><path d="M647.93 216.714V216.03H648.663V216.714H647.93ZM647.93 220.476V217.398H648.663V220.476H647.93Z" fill="#11CBD7"></path><path d="M652.572 220.476V217.968H651.961V220.476H651.228V217.968H650.616V220.476H649.883V217.398H651.228V217.968H651.839V217.398H652.572V217.968H653.184V220.476H652.572Z" fill="#11CBD7"></path><path d="M656.609 219.906V220.476H655.265V221.73H654.531V217.398H656.609V217.968H657.221V219.906H656.609V219.906ZM656.609 217.968H655.265V219.792H656.609V217.968Z" fill="#11CBD7"></path><path d="M660.641 219.906V220.476H659.296V219.906H658.562V217.968H659.174V217.398H660.519V217.968H661.13V219.906H660.641ZM660.641 217.968H659.296V219.792H660.641V217.968Z" fill="#11CBD7"></path><path d="M663.331 217.968V220.476H662.598V217.398H664.676V218.082H663.331V217.968Z" fill="#11CBD7"></path><path d="M665.898 220.476V219.906H665.287V218.082H664.676V217.398H665.287V216.828H666.021V217.398H666.632V218.082H666.021V219.906H666.632V220.59H665.898V220.476Z" fill="#11CBD7"></path><path d="M679.958 233.7H653.43V239.97H679.958V233.7Z" fill="#11CBD7"></path><path d="M728.003 233.7H683.871V239.97H728.003V233.7Z" fill="#11CBD7"></path><path d="M679.958 279.186H653.43V285.456H679.958V279.186Z" fill="#11CBD7"></path><path d="M702.817 254.562H676.289V258.894H702.817V254.562Z" fill="#11CBD7"></path><path d="M702.817 246.354H676.289V250.686H702.817V246.354Z" fill="#11CBD7"></path><path d="M702.817 262.77H676.289V267.102H702.817V262.77Z" fill="#11CBD7"></path><path d="M702.817 270.978H676.289V275.31H702.817V270.978Z" fill="#11CBD7"></path><path fill-rule="evenodd" clip-rule="evenodd" d="M669.473 277.476V245.1H670.154V277.476H669.473Z" fill="#11CBD7"></path><path d="M621.521 188.898H606.484V192.432H621.521V188.898Z" fill="#11CBD7"></path><path d="M621.521 199.5H606.484V203.034H621.521V199.5Z" fill="#11CBD7"></path><path d="M621.521 209.988H606.484V213.522H621.521V209.988Z" fill="#11CBD7"></path><path d="M621.521 220.59H606.484V224.124H621.521V220.59Z" fill="#11CBD7"></path><path d="M621.521 231.078H606.484V234.612H621.521V231.078Z" fill="#11CBD7"></path><path d="M619.809 242.706H610.641V245.1H619.809V242.706Z" fill="#11CBD7"></path><path d="M619.809 238.146H610.641V240.54H619.809V238.146Z" fill="#11CBD7"></path><path d="M619.809 247.38H610.641V249.774H619.809V247.38Z" fill="#11CBD7"></path><path d="M619.809 252.054H610.641V254.448H619.809V252.054Z" fill="#11CBD7"></path><path fill-rule="evenodd" clip-rule="evenodd" d="M601.551 188.891C601.69 188.741 601.933 188.725 602.094 188.855L604.277 190.619L602.082 192.256C601.916 192.38 601.674 192.355 601.541 192.2C601.409 192.045 601.436 191.819 601.601 191.696L603.074 190.597L601.59 189.397C601.429 189.267 601.412 189.041 601.551 188.891Z" fill="#11CBD7"></path><path fill-rule="evenodd" clip-rule="evenodd" d="M594.265 179.726C594.431 179.602 594.674 179.627 594.806 179.782L595.985 181.156L597.271 179.771C597.411 179.622 597.654 179.605 597.814 179.735C597.975 179.865 597.992 180.091 597.853 180.241L595.961 182.277L594.205 180.23C594.073 180.076 594.1 179.85 594.265 179.726Z" fill="#11CBD7"></path><path fill-rule="evenodd" clip-rule="evenodd" d="M601.551 199.607C601.69 199.457 601.933 199.441 602.094 199.571L604.277 201.335L602.082 202.972C601.916 203.096 601.674 203.071 601.541 202.916C601.409 202.762 601.436 202.536 601.601 202.412L603.074 201.313L601.59 200.113C601.429 199.984 601.412 199.757 601.551 199.607Z" fill="#11CBD7"></path><path fill-rule="evenodd" clip-rule="evenodd" d="M601.551 210.209C601.69 210.059 601.933 210.043 602.094 210.173L604.277 211.937L602.082 213.574C601.916 213.698 601.674 213.673 601.541 213.518C601.409 213.363 601.436 213.137 601.601 213.014L603.074 211.915L601.59 210.715C601.429 210.585 601.412 210.358 601.551 210.209Z" fill="#11CBD7"></path><path fill-rule="evenodd" clip-rule="evenodd" d="M601.551 220.811C601.69 220.661 601.933 220.645 602.094 220.775L604.277 222.539L602.082 224.176C601.916 224.3 601.674 224.275 601.541 224.12C601.409 223.965 601.436 223.739 601.601 223.616L603.074 222.517L601.59 221.317C601.429 221.187 601.412 220.961 601.551 220.811Z" fill="#11CBD7"></path><path fill-rule="evenodd" clip-rule="evenodd" d="M600.988 231.938C601.154 231.814 601.396 231.839 601.529 231.994L602.707 233.368L603.994 231.983C604.133 231.833 604.376 231.817 604.537 231.947C604.697 232.077 604.715 232.303 604.575 232.453L602.684 234.489L600.928 232.442C600.795 232.288 600.822 232.062 600.988 231.938Z" fill="#11CBD7"></path><path d="M621.521 179.094H599.883V182.628H621.521V179.094Z" fill="#11CBD7"></path><path fill-rule="evenodd" clip-rule="evenodd" d="M606.781 255.702V237.348H607.166V255.702H606.781Z" fill="#11CBD7"></path><path d="M586.924 178.068H578.855V185.592H586.924V178.068Z" fill="#11CBD7"></path><path d="M586.924 191.064H578.855V198.588H586.924V191.064Z" fill="#11CBD7"></path><path d="M586.924 203.946H578.855V211.47H586.924V203.946Z" fill="#11CBD7"></path><path d="M586.924 216.942H578.855V224.466H586.924V216.942Z" fill="#11CBD7"></path><path d="M586.924 229.824H578.855V237.348H586.924V229.824Z" fill="#11CBD7"></path><path fill-rule="evenodd" clip-rule="evenodd" d="M578.173 195.235C578.336 195.387 578.336 195.633 578.173 195.785L575.239 198.521C575.076 198.673 574.812 198.673 574.649 198.521C574.487 198.369 574.487 198.123 574.649 197.971L577.583 195.235C577.746 195.083 578.01 195.083 578.173 195.235Z" fill="#11CBD7"></path><path fill-rule="evenodd" clip-rule="evenodd" d="M579.835 191.225C578.445 191.225 577.318 192.276 577.318 193.572C577.318 194.868 578.445 195.919 579.835 195.919C581.225 195.919 582.352 194.868 582.352 193.572C582.352 192.276 581.225 191.225 579.835 191.225ZM576.484 193.572C576.484 191.846 577.985 190.447 579.835 190.447C581.686 190.447 583.186 191.846 583.186 193.572C583.186 195.298 581.686 196.697 579.835 196.697C577.985 196.697 576.484 195.298 576.484 193.572Z" fill="#11CBD7"></path><path fill-rule="evenodd" clip-rule="evenodd" d="M575.262 219.744C575.2 219.802 575.155 219.893 575.155 220.02V221.274C575.155 221.401 575.2 221.491 575.262 221.55C575.325 221.608 575.422 221.649 575.558 221.649H576.903C577.012 221.649 577.112 221.599 577.189 221.516C577.27 221.43 577.306 221.331 577.306 221.274V220.02C577.306 219.893 577.261 219.802 577.198 219.744C577.136 219.686 577.039 219.644 576.903 219.644H575.558C575.422 219.644 575.325 219.686 575.262 219.744ZM574.967 219.469C575.119 219.328 575.327 219.255 575.558 219.255H576.903C577.133 219.255 577.342 219.328 577.493 219.469C577.645 219.61 577.722 219.805 577.722 220.02V221.274C577.722 221.444 577.636 221.631 577.503 221.772C577.366 221.918 577.16 222.038 576.903 222.038H575.558C575.327 222.038 575.119 221.966 574.967 221.824C574.816 221.683 574.738 221.489 574.738 221.274V220.02C574.738 219.805 574.816 219.61 574.967 219.469Z" fill="#11CBD7"></path><path fill-rule="evenodd" clip-rule="evenodd" d="M579.661 219.06C579.598 219.119 579.554 219.209 579.554 219.336V220.476C579.554 220.603 579.598 220.694 579.661 220.752C579.723 220.81 579.82 220.852 579.956 220.852H581.301C581.365 220.852 581.475 220.817 581.573 220.748C581.678 220.675 581.704 220.612 581.704 220.59V219.336C581.704 219.209 581.659 219.119 581.597 219.06C581.534 219.002 581.437 218.961 581.301 218.961H579.956C579.82 218.961 579.723 219.002 579.661 219.06ZM579.366 218.785C579.517 218.644 579.726 218.572 579.956 218.572H581.301C581.532 218.572 581.74 218.644 581.892 218.785C582.043 218.927 582.121 219.121 582.121 219.336V220.59C582.121 220.797 581.964 220.961 581.823 221.059C581.678 221.161 581.482 221.241 581.301 221.241H579.956C579.726 221.241 579.517 221.168 579.366 221.027C579.215 220.886 579.137 220.691 579.137 220.476V219.336C579.137 219.121 579.215 218.927 579.366 218.785Z" fill="#11CBD7"></path><path fill-rule="evenodd" clip-rule="evenodd" d="M575.262 222.936C575.2 222.995 575.155 223.085 575.155 223.212V224.466C575.155 224.593 575.2 224.684 575.262 224.742C575.325 224.8 575.422 224.842 575.558 224.842H576.903C577.039 224.842 577.136 224.8 577.198 224.742C577.261 224.684 577.306 224.593 577.306 224.466V223.212C577.306 223.085 577.261 222.995 577.198 222.936C577.136 222.878 577.039 222.836 576.903 222.836H575.558C575.422 222.836 575.325 222.878 575.262 222.936ZM574.967 222.661C575.119 222.52 575.327 222.448 575.558 222.448H576.903C577.133 222.448 577.342 222.52 577.493 222.661C577.645 222.803 577.722 222.997 577.722 223.212V224.466C577.722 224.681 577.645 224.876 577.493 225.017C577.342 225.158 577.133 225.23 576.903 225.23H575.558C575.327 225.23 575.119 225.158 574.967 225.017C574.816 224.876 574.738 224.681 574.738 224.466V223.212C574.738 222.997 574.816 222.803 574.967 222.661Z" fill="#11CBD7"></path><path fill-rule="evenodd" clip-rule="evenodd" d="M578.684 222.936C578.621 222.995 578.577 223.085 578.577 223.212V224.466C578.577 224.593 578.621 224.684 578.684 224.742C578.747 224.8 578.844 224.842 578.98 224.842H580.325C580.461 224.842 580.558 224.8 580.62 224.742C580.683 224.684 580.727 224.593 580.727 224.466V223.212C580.727 223.085 580.683 222.995 580.62 222.936C580.558 222.878 580.461 222.836 580.325 222.836H578.98C578.844 222.836 578.747 222.878 578.684 222.936ZM578.389 222.661C578.541 222.52 578.749 222.448 578.98 222.448H580.325C580.555 222.448 580.764 222.52 580.915 222.661C581.066 222.803 581.144 222.997 581.144 223.212V224.466C581.144 224.681 581.066 224.876 580.915 225.017C580.764 225.158 580.555 225.23 580.325 225.23H578.98C578.749 225.23 578.541 225.158 578.389 225.017C578.238 224.876 578.16 224.681 578.16 224.466V223.212C578.16 222.997 578.238 222.803 578.389 222.661Z" fill="#11CBD7"></path><path d="M858.322 267.33V257.526H847.808V247.836H837.295V238.032H826.781V228.114H837.295V218.31H847.808V208.506H858.322V198.816H869.08V208.848H858.566V218.652H848.053V228.342H837.539V237.918H848.053V247.722H858.566V257.526H869.08V267.444H858.322V267.33Z" fill="#11CBD7"></path><path d="M921.401 238.146V247.95H910.888V257.754H900.374V267.558H889.738V257.64H900.252V247.836H910.765V238.032H921.279V228.456H910.765V218.652H900.252V208.848H889.738V198.816H900.374V208.62H910.888V218.424H921.401V228.228H931.914V238.146H921.401V238.146Z" fill="#11CBD7"></path><g style="mix-blend-mode:multiply" filter="url(#filter17_d)"><path d="M766.284 431.451C765.741 431.067 764.991 431.284 764.766 431.89L763.132 436.297C762.859 437.032 763.528 437.793 764.306 437.635L770.404 436.389C771.254 436.216 771.466 435.122 770.747 434.613L766.284 431.451Z" fill="#2D5C62"></path></g><g style="mix-blend-mode:multiply" filter="url(#filter18_d)"><path d="M772.847 487.327C772.459 486.218 773.121 485.048 774.268 484.814V484.814C775.25 484.613 776.247 485.177 776.585 486.123L781.041 498.573C782.244 501.935 785.787 503.937 789.275 503.224L798.015 501.439C798.688 501.302 799.375 501.674 799.632 502.314V502.314C799.95 503.108 799.485 503.976 798.651 504.146L787.985 506.324C783.477 507.245 778.901 504.638 777.377 500.281L772.847 487.327Z" fill="#2D5C62"></path></g><g style="mix-blend-mode:multiply" filter="url(#filter19_d)"><path d="M775.003 441.868C774.06 439.455 771.483 438.047 768.955 438.563V438.563C765.914 439.184 764.172 442.302 765.232 445.231L783.665 496.211C784.684 499.028 787.656 500.701 790.581 500.104V500.104C794.091 499.387 796.061 495.746 794.752 492.395L775.003 441.868Z" fill="#2D5C62"></path></g><path d="M922.504 141.246H858.834C847.417 141.246 838.148 132.985 838.148 122.808V66.0556C838.148 55.8786 847.417 47.6172 858.834 47.6172H922.504C933.921 47.6172 943.19 55.8786 943.19 66.0556V122.808C943.19 132.985 933.921 141.246 922.504 141.246Z" fill="#F06868"></path><path d="M878.86 113.658H856.855V84.4741H881.428C882.528 84.4741 883.506 85.3861 883.506 86.4121V109.326C883.628 111.72 881.428 113.658 878.86 113.658Z" fill="#2D5C62"></path><path d="M919.324 82.4218H902.82L901.598 73.3018C901.598 71.5918 897.686 62.2438 892.673 64.0678C890.962 64.6378 889.984 66.3478 889.984 68.0578V80.5978C889.984 83.4478 887.539 85.7278 884.483 85.7278H879.715V112.746H889.862C891.818 112.746 893.774 113.43 895.118 114.798L895.363 115.026C897.441 116.964 918.101 119.814 923.114 116.28C925.07 114.912 926.659 113.202 926.659 111.378V89.2618C926.659 85.4998 923.358 82.4218 919.324 82.4218Z" fill="white"></path><path d="M878.613 115.938H875.068C872.011 115.938 869.566 113.658 869.566 110.808V87.3238C869.566 84.4738 872.011 82.1938 875.068 82.1938H878.613C881.669 82.1938 884.114 84.4738 884.114 87.3238V110.808C884.114 113.658 881.669 115.938 878.613 115.938Z" fill="#11CBD7"></path><path d="M877.88 108.528H875.923C874.212 108.528 872.867 107.274 872.867 105.678V92.454C872.867 90.858 874.212 89.604 875.923 89.604H877.88C879.591 89.604 880.936 90.858 880.936 92.454V105.678C880.936 107.274 879.591 108.528 877.88 108.528Z" fill="#1E3437"></path><path d="M364.307 622.326H345.602C343.524 622.326 341.812 620.73 341.812 618.792V601.35C341.812 599.412 343.524 597.816 345.602 597.816H364.307C366.385 597.816 368.096 599.412 368.096 601.35V618.792C367.974 620.73 366.263 622.326 364.307 622.326Z" fill="#2695A4"></path><g filter="url(#filter20_d)"><path d="M358.684 618.108L351.838 609.33C351.471 608.874 351.594 608.076 352.083 607.734C352.572 607.392 353.427 607.506 353.794 607.962L359.051 614.688L377.633 599.754C378.122 599.298 378.855 599.412 379.344 599.868C379.833 600.324 379.711 601.008 379.222 601.464L358.684 618.108Z" fill="#E0E0E0"></path></g><path d="M364.307 668.382H345.602C343.524 668.382 341.812 666.786 341.812 664.848V647.406C341.812 645.468 343.524 643.872 345.602 643.872H364.307C366.385 643.872 368.096 645.468 368.096 647.406V664.848C367.974 666.786 366.263 668.382 364.307 668.382Z" fill="#2695A4"></path><g filter="url(#filter21_d)"><path d="M358.684 664.164L351.838 655.386C351.471 654.93 351.594 654.132 352.083 653.79C352.572 653.448 353.427 653.562 353.794 654.018L359.051 660.744L377.633 645.81C378.122 645.354 378.855 645.468 379.344 645.924C379.833 646.38 379.711 647.064 379.222 647.52L358.684 664.164Z" fill="#E0E0E0"></path></g><path d="M592.795 622.326H574.091C572.012 622.326 570.301 620.73 570.301 618.792V601.35C570.301 599.412 572.012 597.816 574.091 597.816H592.795C594.873 597.816 596.585 599.412 596.585 601.35V618.792C596.585 620.73 594.873 622.326 592.795 622.326Z" fill="#2695A4"></path><g filter="url(#filter22_d)"><path d="M587.169 618.108L580.323 609.33C579.956 608.874 580.078 608.076 580.567 607.734C581.056 607.392 581.912 607.506 582.279 607.962L587.535 614.688L606.117 599.754C606.606 599.298 607.34 599.412 607.829 599.868C608.318 600.324 608.196 601.008 607.707 601.464L587.169 618.108Z" fill="#E0E0E0"></path></g><path d="M592.795 668.382H574.091C572.012 668.382 570.301 666.786 570.301 664.848V647.406C570.301 645.468 572.012 643.872 574.091 643.872H592.795C594.873 643.872 596.585 645.468 596.585 647.406V664.848C596.585 666.786 594.873 668.382 592.795 668.382Z" fill="#2695A4"></path><g filter="url(#filter23_d)"><path d="M587.169 664.164L580.323 655.386C579.956 654.93 580.078 654.132 580.567 653.79C581.056 653.448 581.912 653.562 582.279 654.018L587.535 660.744L606.117 645.81C606.606 645.354 607.34 645.468 607.829 645.924C608.318 646.38 608.196 647.064 607.707 647.52L587.169 664.164Z" fill="#E0E0E0"></path></g><path d="M487.29 602.376H389.734V617.88H487.29V602.376Z" fill="#2695A4"></path><g filter="url(#filter24_i)"><path d="M488.024 664.506H389.246V647.862H488.024V664.506ZM390.346 663.366H486.679V649.002H390.346V663.366Z" fill="#11CBD7"></path></g><g filter="url(#filter25_i)"><path d="M716.512 618.45H617.734V601.806H716.512V618.45ZM618.957 617.31H715.29V602.946H618.957V617.31V617.31Z" fill="#11CBD7"></path></g><path d="M715.899 648.432H618.344V663.936H715.899V648.432Z" fill="#2695A4"></path><g opacity="0.61" filter="url(#filter26_f)"><path d="M257.705 526.224C265.334 526.224 271.519 520.456 271.519 513.342C271.519 506.227 265.334 500.46 257.705 500.46C250.075 500.46 243.891 506.227 243.891 513.342C243.891 520.456 250.075 526.224 257.705 526.224Z" fill="#11CBD7"></path></g><path d="M308.93 634.752L314.798 630.42L308.93 625.632" stroke="#11CBD7" stroke-width="2" stroke-miterlimit="10" stroke-linecap="round"></path><path fill-rule="evenodd" clip-rule="evenodd" d="M423.966 241.224C421.97 241.224 420.299 242.689 420.299 244.644V376.77C420.299 379.24 418.203 381.33 415.409 381.33H287.046C285.05 381.33 283.379 382.795 283.379 384.75V453.834H282.156V384.75C282.156 382.145 284.397 380.19 287.046 380.19H415.409C417.505 380.19 419.076 378.632 419.076 376.77V244.644C419.076 242.039 421.317 240.084 423.966 240.084H497.194V241.224H423.966Z" fill="#034953"></path><path d="M282.766 456.912C285.534 456.912 287.778 454.819 287.778 452.238C287.778 449.657 285.534 447.564 282.766 447.564C279.998 447.564 277.754 449.657 277.754 452.238C277.754 454.819 279.998 456.912 282.766 456.912Z" fill="#11CBD7"></path><path d="M496.95 244.758C499.718 244.758 501.962 242.666 501.962 240.084C501.962 237.503 499.718 235.41 496.95 235.41C494.182 235.41 491.938 237.503 491.938 240.084C491.938 242.666 494.182 244.758 496.95 244.758Z" fill="#11CBD7"></path><path d="M660.642 90.516H634.969C632.158 90.516 629.957 88.464 629.957 85.842V61.902C629.957 59.28 632.158 57.228 634.969 57.228H660.642C663.454 57.228 665.654 59.28 665.654 61.902V85.842C665.776 88.464 663.454 90.516 660.642 90.516Z" fill="#F06868"></path><g filter="url(#filter27_d)"><path d="M706.243 99.6361H680.571C677.759 99.6361 675.559 97.5841 675.559 94.9621V71.0221C675.559 68.4001 677.759 66.3481 680.571 66.3481H706.243C709.055 66.3481 711.256 68.4001 711.256 71.0221V94.9621C711.378 97.4701 709.055 99.6361 706.243 99.6361Z" fill="#11CBD7"></path></g><path d="M751.841 108.642H726.168C723.357 108.642 721.156 106.59 721.156 103.968V80.028C721.156 77.406 723.357 75.354 726.168 75.354H751.841C754.653 75.354 756.853 77.406 756.853 80.028V103.968C756.975 106.476 754.653 108.642 751.841 108.642Z" fill="#2D5C62"></path><path opacity="0.9" d="M347.927 397.196H322.254C319.443 397.196 317.242 395.144 317.242 392.522V368.582C317.242 365.96 319.443 363.908 322.254 363.908H347.927C350.739 363.908 352.939 365.96 352.939 368.582V392.522C352.939 395.03 350.739 397.196 347.927 397.196Z" fill="white" fill-opacity="0.88"></path><path d="M335.091 310.08C337.454 310.08 339.37 308.293 339.37 306.09C339.37 303.886 337.454 302.1 335.091 302.1C332.728 302.1 330.812 303.886 330.812 306.09C330.812 308.293 332.728 310.08 335.091 310.08Z" stroke="#F06868" stroke-width="2" stroke-miterlimit="10"></path><path d="M335.091 332.652C337.454 332.652 339.37 330.865 339.37 328.662C339.37 326.458 337.454 324.672 335.091 324.672C332.728 324.672 330.812 326.458 330.812 328.662C330.812 330.865 332.728 332.652 335.091 332.652Z" stroke="#F06868" stroke-width="2" stroke-miterlimit="10"></path><path d="M348.662 314.868C351.025 314.868 352.94 313.082 352.94 310.878C352.94 308.674 351.025 306.888 348.662 306.888C346.298 306.888 344.383 308.674 344.383 310.878C344.383 313.082 346.298 314.868 348.662 314.868Z" stroke="#F06868" stroke-width="2" stroke-miterlimit="10"></path><path fill-rule="evenodd" clip-rule="evenodd" d="M333.867 322.848V309.396H336.312V322.848C336.312 322.875 336.318 322.886 336.328 322.898C336.344 322.918 336.38 322.948 336.439 322.97C336.499 322.992 336.556 322.995 336.595 322.989C336.622 322.985 336.641 322.977 336.659 322.963C337.959 321.638 339.881 320.195 342.198 319.79C344.154 319.445 345.529 318.516 346.388 317.547C346.82 317.06 347.113 316.572 347.282 316.159C347.463 315.719 347.465 315.46 347.454 315.397L349.865 315.023C349.976 315.644 349.826 316.34 349.566 316.972C349.296 317.632 348.863 318.334 348.272 319C347.084 320.34 345.219 321.577 342.652 322.03L342.65 322.03C341.073 322.306 339.584 323.352 338.439 324.527L338.42 324.547L338.399 324.566C337.569 325.34 336.419 325.413 335.543 325.091C334.661 324.767 333.867 323.97 333.867 322.848Z" fill="#F06868"></path><path d="M447.684 310.878V390.166" stroke="#2D5C62" stroke-width="2" stroke-miterlimit="10" stroke-linecap="round"></path><path d="M459.391 310.878V390.166" stroke="#2D5C62" stroke-width="2" stroke-miterlimit="10" stroke-linecap="round"></path><path d="M470.906 310.878V390.166" stroke="#2D5C62" stroke-width="2" stroke-miterlimit="10" stroke-linecap="round"></path><path d="M485.109 326.986V435.806" stroke="#2D5C62" stroke-width="2" stroke-miterlimit="10" stroke-linecap="round"></path><path d="M496.625 326.986V435.806" stroke="#2D5C62" stroke-width="2" stroke-miterlimit="10" stroke-linecap="round"></path><path d="M508.336 326.986V435.806" stroke="#2D5C62" stroke-width="2" stroke-miterlimit="10" stroke-linecap="round"></path><path d="M914.988 518.944V598.232" stroke="#2D5C62" stroke-width="2" stroke-miterlimit="10" stroke-linecap="round"></path><path d="M926.695 518.944V598.232" stroke="#2D5C62" stroke-width="2" stroke-miterlimit="10" stroke-linecap="round"></path><path d="M938.211 518.944V598.232" stroke="#2D5C62" stroke-width="2" stroke-miterlimit="10" stroke-linecap="round"></path><path d="M952.414 535.052V643.872" stroke="#2D5C62" stroke-width="2" stroke-miterlimit="10" stroke-linecap="round"></path><path d="M963.93 535.052V643.872" stroke="#2D5C62" stroke-width="2" stroke-miterlimit="10" stroke-linecap="round"></path><path d="M975.641 535.052V643.872" stroke="#2D5C62" stroke-width="2" stroke-miterlimit="10" stroke-linecap="round"></path><path d="M406.387 375.288C409.155 375.288 411.4 373.195 411.4 370.614C411.4 368.033 409.155 365.94 406.387 365.94C403.619 365.94 401.375 368.033 401.375 370.614C401.375 373.195 403.619 375.288 406.387 375.288Z" fill="#11CBD7"></path><path d="M389.981 375.288C392.749 375.288 394.993 373.195 394.993 370.614C394.993 368.033 392.749 365.94 389.981 365.94C387.213 365.94 384.969 368.033 384.969 370.614C384.969 373.195 387.213 375.288 389.981 375.288Z" fill="#11CBD7"></path><path d="M461.52 531.696C464.288 531.696 466.532 529.603 466.532 527.022C466.532 524.441 464.288 522.348 461.52 522.348C458.752 522.348 456.508 524.441 456.508 527.022C456.508 529.603 458.752 531.696 461.52 531.696Z" fill="#2695A4"></path><path d="M445.114 531.696C447.882 531.696 450.126 529.603 450.126 527.022C450.126 524.441 447.882 522.348 445.114 522.348C442.346 522.348 440.102 524.441 440.102 527.022C440.102 529.603 442.346 531.696 445.114 531.696Z" fill="#2695A4"></path><g style="mix-blend-mode:multiply"><path d="M257.674 519.553C261.352 519.571 264.35 516.805 264.37 513.374C264.389 509.944 261.422 507.148 257.743 507.13C254.064 507.112 251.066 509.879 251.047 513.309C251.028 516.74 253.995 519.536 257.674 519.553Z" fill="#11CBD7"></path></g><path d="M221.176 459.262L221.176 555.78H255.35" stroke="#11CBD7" stroke-miterlimit="10" stroke-linecap="round"></path><path d="M753.488 141L729.407 86.5651L694.539 141L753.488 141Z" fill="url(#paint0_linear)"></path><rect x="591" y="112" width="77" height="21" fill="white"></rect><defs><filter id="filter0_i" x="95.9219" y="124.032" width="81.729" height="227.521" filterUnits="userSpaceOnUse" color-interpolation-filters="sRGB"><feGaussianBlur stdDeviation="1"></feGaussianBlur></filter><filter id="filter1_d" x="573.273" y="432.922" width="287.938" height="133.642" filterUnits="userSpaceOnUse" color-interpolation-filters="sRGB"><feGaussianBlur stdDeviation="6"></feGaussianBlur></filter><filter id="filter2_d" x="580.672" y="427.158" width="287.938" height="133.642" filterUnits="userSpaceOnUse" color-interpolation-filters="sRGB"><feGaussianBlur stdDeviation="6"></feGaussianBlur></filter><filter id="filter3_d" x="500.277" y="311.66" width="343.35" height="143.69" filterUnits="userSpaceOnUse" color-interpolation-filters="sRGB"><feGaussianBlur stdDeviation="15"></feGaussianBlur></filter><filter id="filter4_i" x="555.875" y="316.692" width="19.3155" height="7.01602" filterUnits="userSpaceOnUse" color-interpolation-filters="sRGB"><feGaussianBlur stdDeviation="1"></feGaussianBlur></filter><filter id="filter5_i" x="761.129" y="316.692" width="19.1932" height="7.01602" filterUnits="userSpaceOnUse" color-interpolation-filters="sRGB"><feGaussianBlur stdDeviation="1"></feGaussianBlur></filter><filter id="filter6_i" x="579.102" y="316.692" width="177.996" height="7.01602" filterUnits="userSpaceOnUse" color-interpolation-filters="sRGB"><feGaussianBlur stdDeviation="1"></feGaussianBlur></filter><filter id="filter7_i" x="618.082" y="364.002" width="118.98" height="39.05" filterUnits="userSpaceOnUse" color-interpolation-filters="sRGB"><feGaussianBlur stdDeviation="1"></feGaussianBlur></filter><filter id="filter8_d" x="152.031" y="463.55" width="347.27" height="84.3279" filterUnits="userSpaceOnUse" color-interpolation-filters="sRGB"><feGaussianBlur stdDeviation="2.5"></feGaussianBlur></filter><filter id="filter9_d" x="225.648" y="485.384" width="74.9896" height="74.4485" filterUnits="userSpaceOnUse" color-interpolation-filters="sRGB"><feGaussianBlur stdDeviation="6"></feGaussianBlur></filter><filter id="filter10_d" x="222.938" y="480.052" width="77.7001" height="73.7108" filterUnits="userSpaceOnUse" color-interpolation-filters="sRGB"><feGaussianBlur stdDeviation="6"></feGaussianBlur></filter><filter id="filter11_i" x="245.605" y="88.2358" width="47.6775" height="12.286" filterUnits="userSpaceOnUse" color-interpolation-filters="sRGB"><feGaussianBlur stdDeviation="1"></feGaussianBlur></filter><filter id="filter12_i" x="245.605" y="121.752" width="47.6775" height="12.286" filterUnits="userSpaceOnUse" color-interpolation-filters="sRGB"><feGaussianBlur stdDeviation="1"></feGaussianBlur></filter><filter id="filter13_i" x="245.605" y="155.268" width="47.6775" height="12.286" filterUnits="userSpaceOnUse" color-interpolation-filters="sRGB"><feGaussianBlur stdDeviation="1"></feGaussianBlur></filter><filter id="filter14_i" x="245.605" y="188.898" width="47.6775" height="12.286" filterUnits="userSpaceOnUse" color-interpolation-filters="sRGB"><feGaussianBlur stdDeviation="1"></feGaussianBlur></filter><filter id="filter15_i" x="245.605" y="222.414" width="47.6775" height="12.286" filterUnits="userSpaceOnUse" color-interpolation-filters="sRGB"><feGaussianBlur stdDeviation="1"></feGaussianBlur></filter><filter id="filter16_i" x="224.578" y="56.8857" width="61.7363" height="12.286" filterUnits="userSpaceOnUse" color-interpolation-filters="sRGB"><feGaussianBlur stdDeviation="1"></feGaussianBlur></filter><filter id="filter17_d" x="759.07" y="431.26" width="16.1123" height="14.3961" filterUnits="userSpaceOnUse" color-interpolation-filters="sRGB"><feGaussianBlur stdDeviation="2"></feGaussianBlur></filter><filter id="filter18_d" x="768.734" y="484.773" width="34.9967" height="29.7351" filterUnits="userSpaceOnUse" color-interpolation-filters="sRGB"><feGaussianBlur stdDeviation="2"></feGaussianBlur></filter><filter id="filter19_d" x="760.922" y="438.457" width="38.2389" height="69.7677" filterUnits="userSpaceOnUse" color-interpolation-filters="sRGB"><feGaussianBlur stdDeviation="2"></feGaussianBlur></filter><filter id="filter20_d" x="346.625" y="598.464" width="38.0308" height="28.6443" filterUnits="userSpaceOnUse" color-interpolation-filters="sRGB"><feGaussianBlur stdDeviation="2.5"></feGaussianBlur></filter><filter id="filter21_d" x="346.625" y="644.52" width="38.0308" height="28.6443" filterUnits="userSpaceOnUse" color-interpolation-filters="sRGB"><feGaussianBlur stdDeviation="2.5"></feGaussianBlur></filter><filter id="filter22_d" x="575.109" y="598.464" width="38.0308" height="28.6443" filterUnits="userSpaceOnUse" color-interpolation-filters="sRGB"><feGaussianBlur stdDeviation="2.5"></feGaussianBlur></filter><filter id="filter23_d" x="575.109" y="644.52" width="38.0308" height="28.6443" filterUnits="userSpaceOnUse" color-interpolation-filters="sRGB"><feGaussianBlur stdDeviation="2.5"></feGaussianBlur></filter><filter id="filter24_i" x="389.246" y="647.862" width="98.778" height="17.6439" filterUnits="userSpaceOnUse" color-interpolation-filters="sRGB"><feGaussianBlur stdDeviation="1"></feGaussianBlur></filter><filter id="filter25_i" x="617.734" y="601.806" width="98.778" height="17.644" filterUnits="userSpaceOnUse" color-interpolation-filters="sRGB"><feGaussianBlur stdDeviation="1"></feGaussianBlur></filter><filter id="filter26_f" x="236.891" y="493.46" width="41.6285" height="39.764" filterUnits="userSpaceOnUse" color-interpolation-filters="sRGB"><feGaussianBlur stdDeviation="3.5"></feGaussianBlur></filter><filter id="filter27_d" x="671.559" y="66.3481" width="43.7016" height="41.288" filterUnits="userSpaceOnUse" color-interpolation-filters="sRGB"><feGaussianBlur stdDeviation="2"></feGaussianBlur></filter><linearGradient id="paint0_linear" x1="724.013" y1="141" x2="724.013" y2="86.5651" gradientUnits="userSpaceOnUse"><stop stop-color="white" stop-opacity="0.67"></stop><stop offset="1" stop-color="#11CBD7" stop-opacity="0"></stop></linearGradient></defs></svg>